<svg width="115" height="34" fill="none" xmlns="http://www.w3.org/2000/svg"><g clip-path="url(#clip0)" fill="#000"><path d="M0 12.9v2.6h2.5v-2.6H0zM11.6 4.5c-1.5 0-2.8.7-3.6 1.8V0H6v15.5h2v-5.3C8 8 9.2 6.5 11.1 6.5c1.9 0 3 1.4 3 3.2v5.8h2V9.4c0-3-1.9-4.9-4.6-4.9zM26.6 4.8h-4.8V1.1h-2v3.7h-2v2h2v6c0 1.7 1 2.7 2.7 2.7h4.1v-2H23c-.7 0-1-.4-1-1V6.7h4.7v-2zM41.1 4.6c-1.6 0-2.8.7-3.5 2-.7-1.2-1.9-2-3.4-2s-2.5.7-3.2 1.8V4.8h-2v10.7h2V10c0-2 1-3.5 2.7-3.5 1.5 0 2.3 1 2.3 2.6v6.4h2V9.8c0-2.4 1.5-3.3 2.7-3.3 1.5 0 2.3 1 2.3 2.6v6.4h2V8.9c0-2.5-1.4-4.3-3.9-4.3zM47.8 12.7c0 1.7 1 2.8 2.8 2.8h2v-2H51c-.7 0-1-.4-1-1V0h-2v12.7zM28.9 19.7c-.9-1-2.2-1.8-3.9-1.8-3.1 0-5.4 2.3-5.4 5.5 0 3.3 2.3 5.7 5.4 5.6 1.8 0 3-.8 3.8-2h.1v1.7h2V18.2h-2v1.5zm-3.6 7.4a3.5 3.5 0 01-3.6-3.7c0-2 1.4-3.6 3.6-3.6s3.6 1.6 3.6 3.6-1.4 3.7-3.6 3.7zM44.2 22a5.3 5.3 0 00-5.4-4.1 5.4 5.4 0 00-5.6 5.5c0 3.2 2.3 5.6 5.6 5.6 2.8 0 5-1.8 5.4-4.2h-2.1a3.3 3.3 0 01-3.3 2.3 3.5 3.5 0 01-3.6-3.7c0-2 1.5-3.6 3.6-3.6 1.7 0 2.9 1 3.3 2.2h2.1zM55 19.7c-.8-1-2-1.8-3.8-1.8-3.1 0-5.4 2.3-5.4 5.5 0 3.3 2.3 5.7 5.4 5.6 1.7 0 3-.8 3.8-2v1.7h2.1V18.2h-2v1.5zm-3.5 7.4a3.5 3.5 0 01-3.7-3.7c0-2 1.5-3.6 3.7-3.6 2.1 0 3.6 1.6 3.6 3.6s-1.5 3.7-3.6 3.7zM68.7 19.8h-.1c-.8-1.1-2.2-2-3.8-2-3.1 0-5.4 2.4-5.4 5.7 0 3.2 2.2 5.6 5.4 5.5 1.6 0 3-.7 3.7-1.8h.2v1.5h2V13.4h-2v6.4zM65 27.1a3.5 3.5 0 01-3.7-3.6c0-2 1.4-3.7 3.7-3.7 2.1 0 3.5 1.7 3.5 3.7S67.2 27 65.1 27zM78.3 17.9a5.4 5.4 0 00-5.5 5.6c0 3 2.1 5.5 5.6 5.5 2.5 0 4.4-1.3 5.2-3.6h-2.2c-.4 1-1.6 1.7-3 1.7-1.9 0-3.2-1.3-3.4-3h8.8c.2-3.5-2-6.2-5.5-6.2zm0 2c1.7 0 3 1 3.3 2.5H75a3.2 3.2 0 013.2-2.6zM98.2 17.9c-1.6 0-2.9.8-3.6 2-.6-1.2-1.8-2-3.4-2-1.4 0-2.5.7-3.1 1.8v-1.5h-2v10.5h2v-5.4c0-2 1-3.4 2.6-3.5 1.5 0 2.4 1 2.4 2.7v6.2h2v-5.6c0-2.3 1.4-3.3 2.7-3.3 1.4 0 2.3 1 2.3 2.7v6.2h2v-6.5c0-2.5-1.4-4.3-3.9-4.3zM109.4 27l-3.6-8.8h-2.2l4.8 11.5c-.4 1-.8 1.3-1.7 1.3h-2.5v2h2.5c1.8 0 2.8-.8 3.5-2.6l4.7-12.2h-2.1l-3.4 8.8z"/></g><defs><clipPath id="clip0"><path fill="#fff" d="M0 0h115v33H0z"/></clipPath></defs></svg>